<svg width="31" height="30" viewBox="0 0 31 30" fill="none" xmlns="http://www.w3.org/2000/svg">
<rect x="0.5" width="30" height="30" rx="15" fill="#367CB6"/>
<path d="M19.2909 12.0527C20.631 12.0527 21.9161 12.5851 22.8637 13.5326C23.8112 14.4802 24.3435 15.7653 24.3435 17.1054V23.0001H20.9751V17.1054C20.9751 16.6587 20.7977 16.2303 20.4818 15.9144C20.166 15.5986 19.7376 15.4212 19.2909 15.4212C18.8442 15.4212 18.4158 15.5986 18.1 15.9144C17.7841 16.2303 17.6067 16.6587 17.6067 17.1054V23.0001H14.2383V17.1054C14.2383 15.7653 14.7706 14.4802 15.7182 13.5326C16.6657 12.5851 17.9509 12.0527 19.2909 12.0527Z" fill="white" stroke="white" stroke-linecap="round" stroke-linejoin="round"/>
<path d="M10.8684 12.8948H7.5V23H10.8684V12.8948Z" fill="white" stroke="white" stroke-linecap="round" stroke-linejoin="round"/>
<path d="M9.18421 10.3684C10.1144 10.3684 10.8684 9.61437 10.8684 8.68421C10.8684 7.75405 10.1144 7 9.18421 7C8.25405 7 7.5 7.75405 7.5 8.68421C7.5 9.61437 8.25405 10.3684 9.18421 10.3684Z" fill="white" stroke="white" stroke-linecap="round" stroke-linejoin="round"/>
</svg>
