<svg width="31" height="30" viewBox="0 0 31 30" fill="none" xmlns="http://www.w3.org/2000/svg">
<rect x="0.5" width="30" height="30" rx="15" fill="#3E8DD2"/>
<path d="M24.1648 8.00785C23.4177 8.53487 22.5904 8.93795 21.7149 9.20158C21.245 8.66129 20.6205 8.27834 19.9259 8.10454C19.2313 7.93073 18.5 7.97445 17.8311 8.22978C17.1621 8.48511 16.5877 8.93974 16.1855 9.53217C15.7833 10.1246 15.5728 10.8263 15.5824 11.5422V12.3225C14.2113 12.358 12.8526 12.0539 11.6275 11.4373C10.4023 10.8206 9.34871 9.91052 8.56044 8.78806C8.56044 8.78806 5.43956 15.81 12.4615 18.9309C10.8547 20.0216 8.94053 20.5685 7 20.4913C14.022 24.3924 22.6044 20.4913 22.6044 11.5188C22.6037 11.3015 22.5828 11.0847 22.542 10.8712C23.3383 10.086 23.9002 9.09447 24.1648 8.00785Z" fill="white" stroke="white" stroke-linecap="round" stroke-linejoin="round"/>
</svg>
